<?xml version="1.0" encoding="UTF-8"?>
<!DOCTYPE svg PUBLIC "-//W3C//DTD SVG 1.1//EN" "http://www.w3.org/Graphics/SVG/1.1/DTD/svg11.dtd">
<svg xmlns="http://www.w3.org/2000/svg" xmlns:xlink="http://www.w3.org/1999/xlink" version="1.1" width="971px" height="1611px" viewBox="-0.5 -0.5 971 1611" style="background-color: rgb(255, 255, 255);"><defs/><g><rect x="0" y="0" width="970" height="1610" fill="#ffffff" stroke="none" pointer-events="all"/><rect x="10" y="1290" width="440" height="40" fill="rgb(255, 255, 255)" stroke="none" pointer-events="all"/><g fill="rgb(0, 0, 0)" font-family="Helvetica" font-weight="bold" font-size="15px"><text x="11.5" y="1316">10. úloha (graf - Dijkstrov algoritmus)</text></g><rect x="10" y="450" width="440" height="40" fill="rgb(255, 255, 255)" stroke="none" pointer-events="all"/><g fill="rgb(0, 0, 0)" font-family="Helvetica" font-weight="bold" font-size="15px"><text x="11.5" y="476">8. úloha (strom - hladanie do šírky)</text></g><rect x="10" y="90" width="440" height="40" fill="rgb(255, 255, 255)" stroke="none" pointer-events="all"/><g fill="rgb(0, 0, 0)" font-family="Helvetica" font-weight="bold" font-size="15px"><text x="11.5" y="116">7. úloha (strom - hladanie do hĺbky, iteratívne)</text></g><rect x="610" y="890" width="260" height="230" rx="34.5" ry="34.5" fill="#ffffff" stroke="#888888" pointer-events="all"/><rect x="515" y="1070" width="20" height="20" fill="#ffffff" stroke="none" pointer-events="all"/><g fill="rgb(0, 0, 0)" font-family="Helvetica" text-anchor="middle" font-size="12px"><text x="524.5" y="1084.5">6.</text></g><rect x="130" y="1170" width="20" height="20" fill="#ffffff" stroke="none" pointer-events="all"/><g fill="rgb(0, 0, 0)" font-family="Helvetica" text-anchor="middle" font-size="12px"><text x="139.5" y="1184.5">4.</text></g><rect x="270" y="1170" width="20" height="20" fill="#ffffff" stroke="none" pointer-events="all"/><g fill="rgb(0, 0, 0)" font-family="Helvetica" text-anchor="middle" font-size="12px"><text x="279.5" y="1184.5">7.</text></g><rect x="190" y="870" width="20" height="20" fill="#ffffff" stroke="none" pointer-events="all"/><g fill="rgb(0, 0, 0)" font-family="Helvetica" text-anchor="middle" font-size="12px"><text x="199.5" y="884.5">8.</text></g><rect x="190" y="970" width="20" height="20" fill="#ffffff" stroke="none" pointer-events="all"/><g fill="rgb(0, 0, 0)" font-family="Helvetica" text-anchor="middle" font-size="12px"><text x="199.5" y="984.5">5.</text></g><rect x="350" y="1070" width="20" height="20" fill="#ffffff" stroke="none" pointer-events="all"/><g fill="rgb(0, 0, 0)" font-family="Helvetica" text-anchor="middle" font-size="12px"><text x="359.5" y="1084.5">3.</text></g><rect x="30" y="1070" width="20" height="20" fill="#ffffff" stroke="none" pointer-events="all"/><g fill="rgb(0, 0, 0)" font-family="Helvetica" text-anchor="middle" font-size="12px"><text x="39.5" y="1084.5">2.</text></g><rect x="190" y="1070" width="20" height="20" fill="#ffffff" stroke="none" pointer-events="all"/><g fill="rgb(0, 0, 0)" font-family="Helvetica" text-anchor="middle" font-size="12px"><text x="199.5" y="1084.5">1.</text></g><ellipse cx="215" cy="150" rx="20" ry="20" fill="rgb(255, 255, 255)" stroke="rgb(0, 0, 0)" pointer-events="all"/><g fill="rgb(0, 0, 0)" font-family="Helvetica" text-anchor="middle" font-size="15px"><text x="214.5" y="156">A</text></g><ellipse cx="250" cy="310" rx="20" ry="20" fill="rgb(255, 255, 255)" stroke="rgb(0, 0, 0)" pointer-events="all"/><g fill="rgb(0, 0, 0)" font-family="Helvetica" text-anchor="middle" font-size="15px"><text x="249.5" y="316">j</text></g><ellipse cx="310" cy="310" rx="20" ry="20" fill="rgb(255, 255, 255)" stroke="rgb(0, 0, 0)" pointer-events="all"/><g fill="rgb(0, 0, 0)" font-family="Helvetica" text-anchor="middle" font-size="15px"><text x="309.5" y="316">K</text></g><ellipse cx="130" cy="310" rx="20" ry="20" fill="rgb(255, 255, 255)" stroke="rgb(0, 0, 0)" pointer-events="all"/><g fill="rgb(0, 0, 0)" font-family="Helvetica" text-anchor="middle" font-size="15px"><text x="129.5" y="316">F</text></g><path d="M 65 340 L 44.08 365.11" fill="none" stroke="rgb(0, 0, 0)" stroke-miterlimit="10" pointer-events="stroke"/><path d="M 40.72 369.14 L 42.51 361.52 L 44.08 365.11 L 47.89 366 Z" fill="rgb(0, 0, 0)" stroke="rgb(0, 0, 0)" stroke-miterlimit="10" pointer-events="all"/><ellipse cx="70" cy="310" rx="20" ry="20" fill="rgb(255, 255, 255)" stroke="rgb(0, 0, 0)" pointer-events="all"/><g fill="rgb(0, 0, 0)" font-family="Helvetica" text-anchor="middle" font-size="15px"><text x="69.5" y="316">C</text></g><ellipse cx="190" cy="310" rx="20" ry="20" fill="rgb(255, 255, 255)" stroke="rgb(0, 0, 0)" pointer-events="all"/><g fill="rgb(0, 0, 0)" font-family="Helvetica" text-anchor="middle" font-size="15px"><text x="189.5" y="316">H</text></g><ellipse cx="330" cy="230" rx="20" ry="20" fill="rgb(255, 255, 255)" stroke="rgb(0, 0, 0)" pointer-events="all"/><g fill="rgb(0, 0, 0)" font-family="Helvetica" text-anchor="middle" font-size="15px"><text x="329.5" y="236">I</text></g><ellipse cx="190" cy="230" rx="20" ry="20" fill="rgb(255, 255, 255)" stroke="rgb(0, 0, 0)" pointer-events="all"/><g fill="rgb(0, 0, 0)" font-family="Helvetica" text-anchor="middle" font-size="15px"><text x="189.5" y="236">g</text></g><ellipse cx="100" cy="230" rx="20" ry="20" fill="rgb(255, 255, 255)" stroke="rgb(0, 0, 0)" pointer-events="all"/><g fill="rgb(0, 0, 0)" font-family="Helvetica" text-anchor="middle" font-size="15px"><text x="99.5" y="236">B</text></g><path d="M 205 180 L 106.12 208.25" fill="none" stroke="rgb(0, 0, 0)" stroke-miterlimit="10" pointer-events="stroke"/><path d="M 101.07 209.69 L 106.84 204.4 L 106.12 208.25 L 108.77 211.14 Z" fill="rgb(0, 0, 0)" stroke="rgb(0, 0, 0)" stroke-miterlimit="10" pointer-events="all"/><rect x="200" y="170" width="10" height="10" fill="rgb(255, 255, 255)" stroke="rgb(0, 0, 0)" pointer-events="all"/><path d="M 215 180 L 194.08 205.11" fill="none" stroke="rgb(0, 0, 0)" stroke-miterlimit="10" pointer-events="stroke"/><path d="M 190.72 209.14 L 192.51 201.52 L 194.08 205.11 L 197.89 206 Z" fill="rgb(0, 0, 0)" stroke="rgb(0, 0, 0)" stroke-miterlimit="10" pointer-events="all"/><rect x="210" y="170" width="10" height="10" fill="rgb(255, 255, 255)" stroke="rgb(0, 0, 0)" pointer-events="all"/><path d="M 225 180 L 323.88 208.25" fill="none" stroke="rgb(0, 0, 0)" stroke-miterlimit="10" pointer-events="stroke"/><path d="M 328.93 209.69 L 321.23 211.14 L 323.88 208.25 L 323.16 204.4 Z" fill="rgb(0, 0, 0)" stroke="rgb(0, 0, 0)" stroke-miterlimit="10" pointer-events="all"/><rect x="220" y="170" width="10" height="10" fill="rgb(255, 255, 255)" stroke="rgb(0, 0, 0)" pointer-events="all"/><rect x="170" y="1090" width="80" height="40" rx="20" ry="20" fill="#f5f5f5" stroke="none" pointer-events="all"/><g fill="#333333" font-family="Helvetica" text-anchor="middle" font-size="15px"><text x="209.5" y="1116">London</text></g><path d="M 190 1125 L 96.3 1110.94" fill="none" stroke="rgb(0, 0, 0)" stroke-miterlimit="10" pointer-events="stroke"/><path d="M 91.11 1110.17 L 98.55 1107.74 L 96.3 1110.94 L 97.51 1114.67 Z" fill="rgb(0, 0, 0)" stroke="rgb(0, 0, 0)" stroke-miterlimit="10" pointer-events="all"/><rect x="190" y="1120" width="20" height="10" fill="#f5f5f5" stroke="#666666" pointer-events="all"/><path d="M 230 1125 L 323.7 1110.94" fill="none" stroke="#666666" stroke-miterlimit="10" pointer-events="stroke"/><path d="M 328.89 1110.17 L 322.49 1114.67 L 323.7 1110.94 L 321.45 1107.74 Z" fill="#666666" stroke="#666666" stroke-miterlimit="10" pointer-events="all"/><rect x="210" y="1120" width="20" height="10" fill="#f5f5f5" stroke="#666666" pointer-events="all"/><ellipse cx="370" cy="310" rx="20" ry="20" fill="rgb(255, 255, 255)" stroke="rgb(0, 0, 0)" pointer-events="all"/><g fill="rgb(0, 0, 0)" font-family="Helvetica" text-anchor="middle" font-size="15px"><text x="369.5" y="316">M</text></g><ellipse cx="430" cy="310" rx="20" ry="20" fill="rgb(255, 255, 255)" stroke="rgb(0, 0, 0)" pointer-events="all"/><g fill="rgb(0, 0, 0)" font-family="Helvetica" text-anchor="middle" font-size="15px"><text x="429.5" y="316">N</text></g><ellipse cx="40" cy="390" rx="20" ry="20" fill="rgb(255, 255, 255)" stroke="rgb(0, 0, 0)" pointer-events="all"/><g fill="rgb(0, 0, 0)" font-family="Helvetica" text-anchor="middle" font-size="15px"><text x="39.5" y="396">D</text></g><ellipse cx="100" cy="390" rx="20" ry="20" fill="rgb(255, 255, 255)" stroke="rgb(0, 0, 0)" pointer-events="all"/><g fill="rgb(0, 0, 0)" font-family="Helvetica" text-anchor="middle" font-size="15px"><text x="99.5" y="396">E</text></g><ellipse cx="310" cy="390" rx="20" ry="20" fill="rgb(255, 255, 255)" stroke="rgb(0, 0, 0)" pointer-events="all"/><g fill="rgb(0, 0, 0)" font-family="Helvetica" text-anchor="middle" font-size="15px"><text x="309.5" y="396">L</text></g><path d="M 95 260 L 74.08 285.11" fill="none" stroke="rgb(0, 0, 0)" stroke-miterlimit="10" pointer-events="stroke"/><path d="M 70.72 289.14 L 72.51 281.52 L 74.08 285.11 L 77.89 286 Z" fill="rgb(0, 0, 0)" stroke="rgb(0, 0, 0)" stroke-miterlimit="10" pointer-events="all"/><rect x="90" y="250" width="10" height="10" fill="rgb(255, 255, 255)" stroke="rgb(0, 0, 0)" pointer-events="all"/><path d="M 102.5 260 L 125.7 285.31" fill="none" stroke="rgb(0, 0, 0)" stroke-miterlimit="10" pointer-events="stroke"/><path d="M 129.24 289.18 L 121.93 286.38 L 125.7 285.31 L 127.09 281.65 Z" fill="rgb(0, 0, 0)" stroke="rgb(0, 0, 0)" stroke-miterlimit="10" pointer-events="all"/><rect x="100" y="250" width="10" height="10" fill="rgb(255, 255, 255)" stroke="rgb(0, 0, 0)" pointer-events="all"/><path d="M 190 260 L 190 283.63" fill="none" stroke="rgb(0, 0, 0)" stroke-miterlimit="10" pointer-events="stroke"/><path d="M 190 288.88 L 186.5 281.88 L 190 283.63 L 193.5 281.88 Z" fill="rgb(0, 0, 0)" stroke="rgb(0, 0, 0)" stroke-miterlimit="10" pointer-events="all"/><rect x="185" y="250" width="10" height="10" fill="rgb(255, 255, 255)" stroke="rgb(0, 0, 0)" pointer-events="all"/><path d="M 315 260 L 255.78 287.33" fill="none" stroke="rgb(0, 0, 0)" stroke-miterlimit="10" pointer-events="stroke"/><path d="M 251.02 289.53 L 255.9 283.42 L 255.78 287.33 L 258.84 289.78 Z" fill="rgb(0, 0, 0)" stroke="rgb(0, 0, 0)" stroke-miterlimit="10" pointer-events="all"/><rect x="310" y="250" width="10" height="10" fill="rgb(255, 255, 255)" stroke="rgb(0, 0, 0)" pointer-events="all"/><path d="M 325 260 L 312.85 284.3" fill="none" stroke="rgb(0, 0, 0)" stroke-miterlimit="10" pointer-events="stroke"/><path d="M 310.5 289 L 310.5 281.17 L 312.85 284.3 L 316.76 284.3 Z" fill="rgb(0, 0, 0)" stroke="rgb(0, 0, 0)" stroke-miterlimit="10" pointer-events="all"/><rect x="320" y="250" width="10" height="10" fill="rgb(255, 255, 255)" stroke="rgb(0, 0, 0)" pointer-events="all"/><path d="M 335 260 L 365.17 285.86" fill="none" stroke="rgb(0, 0, 0)" stroke-miterlimit="10" pointer-events="stroke"/><path d="M 369.15 289.27 L 361.56 287.37 L 365.17 285.86 L 366.11 282.06 Z" fill="rgb(0, 0, 0)" stroke="rgb(0, 0, 0)" stroke-miterlimit="10" pointer-events="all"/><rect x="330" y="250" width="10" height="10" fill="rgb(255, 255, 255)" stroke="rgb(0, 0, 0)" pointer-events="all"/><path d="M 345 260 L 424 287.88" fill="none" stroke="rgb(0, 0, 0)" stroke-miterlimit="10" pointer-events="stroke"/><path d="M 428.95 289.63 L 421.18 290.6 L 424 287.88 L 423.51 284 Z" fill="rgb(0, 0, 0)" stroke="rgb(0, 0, 0)" stroke-miterlimit="10" pointer-events="all"/><rect x="340" y="250" width="10" height="10" fill="rgb(255, 255, 255)" stroke="rgb(0, 0, 0)" pointer-events="all"/><rect x="60" y="330" width="10" height="10" fill="rgb(255, 255, 255)" stroke="rgb(0, 0, 0)" pointer-events="all"/><path d="M 75 340 L 95.92 365.11" fill="none" stroke="rgb(0, 0, 0)" stroke-miterlimit="10" pointer-events="stroke"/><path d="M 99.28 369.14 L 92.11 366 L 95.92 365.11 L 97.49 361.52 Z" fill="rgb(0, 0, 0)" stroke="rgb(0, 0, 0)" stroke-miterlimit="10" pointer-events="all"/><rect x="70" y="330" width="10" height="10" fill="rgb(255, 255, 255)" stroke="rgb(0, 0, 0)" pointer-events="all"/><path d="M 310 340 L 310 363.63" fill="none" stroke="rgb(0, 0, 0)" stroke-miterlimit="10" pointer-events="stroke"/><path d="M 310 368.88 L 306.5 361.88 L 310 363.63 L 313.5 361.88 Z" fill="rgb(0, 0, 0)" stroke="rgb(0, 0, 0)" stroke-miterlimit="10" pointer-events="all"/><rect x="305" y="330" width="10" height="10" fill="rgb(255, 255, 255)" stroke="rgb(0, 0, 0)" pointer-events="all"/><ellipse cx="215" cy="510" rx="20" ry="20" fill="rgb(255, 255, 255)" stroke="rgb(0, 0, 0)" pointer-events="all"/><g fill="rgb(0, 0, 0)" font-family="Helvetica" text-anchor="middle" font-size="15px"><text x="214.5" y="516">A</text></g><ellipse cx="250" cy="670" rx="20" ry="20" fill="rgb(255, 255, 255)" stroke="rgb(0, 0, 0)" pointer-events="all"/><g fill="rgb(0, 0, 0)" font-family="Helvetica" text-anchor="middle" font-size="15px"><text x="249.5" y="676">j</text></g><ellipse cx="310" cy="670" rx="20" ry="20" fill="rgb(255, 255, 255)" stroke="rgb(0, 0, 0)" pointer-events="all"/><g fill="rgb(0, 0, 0)" font-family="Helvetica" text-anchor="middle" font-size="15px"><text x="309.5" y="676">K</text></g><ellipse cx="130" cy="670" rx="20" ry="20" fill="rgb(255, 255, 255)" stroke="rgb(0, 0, 0)" pointer-events="all"/><g fill="rgb(0, 0, 0)" font-family="Helvetica" text-anchor="middle" font-size="15px"><text x="129.5" y="676">F</text></g><path d="M 65 700 L 44.08 725.11" fill="none" stroke="rgb(0, 0, 0)" stroke-miterlimit="10" pointer-events="stroke"/><path d="M 40.72 729.14 L 42.51 721.52 L 44.08 725.11 L 47.89 726 Z" fill="rgb(0, 0, 0)" stroke="rgb(0, 0, 0)" stroke-miterlimit="10" pointer-events="all"/><ellipse cx="70" cy="670" rx="20" ry="20" fill="rgb(255, 255, 255)" stroke="rgb(0, 0, 0)" pointer-events="all"/><g fill="rgb(0, 0, 0)" font-family="Helvetica" text-anchor="middle" font-size="15px"><text x="69.5" y="676">C</text></g><ellipse cx="190" cy="670" rx="20" ry="20" fill="rgb(255, 255, 255)" stroke="rgb(0, 0, 0)" pointer-events="all"/><g fill="rgb(0, 0, 0)" font-family="Helvetica" text-anchor="middle" font-size="15px"><text x="189.5" y="676">H</text></g><ellipse cx="330" cy="590" rx="20" ry="20" fill="rgb(255, 255, 255)" stroke="rgb(0, 0, 0)" pointer-events="all"/><g fill="rgb(0, 0, 0)" font-family="Helvetica" text-anchor="middle" font-size="15px"><text x="329.5" y="596">I</text></g><ellipse cx="190" cy="590" rx="20" ry="20" fill="rgb(255, 255, 255)" stroke="rgb(0, 0, 0)" pointer-events="all"/><g fill="rgb(0, 0, 0)" font-family="Helvetica" text-anchor="middle" font-size="15px"><text x="189.5" y="596">g</text></g><ellipse cx="100" cy="590" rx="20" ry="20" fill="rgb(255, 255, 255)" stroke="rgb(0, 0, 0)" pointer-events="all"/><g fill="rgb(0, 0, 0)" font-family="Helvetica" text-anchor="middle" font-size="15px"><text x="99.5" y="596">B</text></g><path d="M 205 540 L 106.12 568.25" fill="none" stroke="rgb(0, 0, 0)" stroke-miterlimit="10" pointer-events="stroke"/><path d="M 101.07 569.69 L 106.84 564.4 L 106.12 568.25 L 108.77 571.14 Z" fill="rgb(0, 0, 0)" stroke="rgb(0, 0, 0)" stroke-miterlimit="10" pointer-events="all"/><rect x="200" y="530" width="10" height="10" fill="rgb(255, 255, 255)" stroke="rgb(0, 0, 0)" pointer-events="all"/><path d="M 215 540 L 194.08 565.11" fill="none" stroke="rgb(0, 0, 0)" stroke-miterlimit="10" pointer-events="stroke"/><path d="M 190.72 569.14 L 192.51 561.52 L 194.08 565.11 L 197.89 566 Z" fill="rgb(0, 0, 0)" stroke="rgb(0, 0, 0)" stroke-miterlimit="10" pointer-events="all"/><rect x="210" y="530" width="10" height="10" fill="rgb(255, 255, 255)" stroke="rgb(0, 0, 0)" pointer-events="all"/><path d="M 225 540 L 323.88 568.25" fill="none" stroke="rgb(0, 0, 0)" stroke-miterlimit="10" pointer-events="stroke"/><path d="M 328.93 569.69 L 321.23 571.14 L 323.88 568.25 L 323.16 564.4 Z" fill="rgb(0, 0, 0)" stroke="rgb(0, 0, 0)" stroke-miterlimit="10" pointer-events="all"/><rect x="220" y="530" width="10" height="10" fill="rgb(255, 255, 255)" stroke="rgb(0, 0, 0)" pointer-events="all"/><ellipse cx="370" cy="670" rx="20" ry="20" fill="rgb(255, 255, 255)" stroke="rgb(0, 0, 0)" pointer-events="all"/><g fill="rgb(0, 0, 0)" font-family="Helvetica" text-anchor="middle" font-size="15px"><text x="369.5" y="676">M</text></g><ellipse cx="430" cy="670" rx="20" ry="20" fill="rgb(255, 255, 255)" stroke="rgb(0, 0, 0)" pointer-events="all"/><g fill="rgb(0, 0, 0)" font-family="Helvetica" text-anchor="middle" font-size="15px"><text x="429.5" y="676">N</text></g><ellipse cx="40" cy="750" rx="20" ry="20" fill="rgb(255, 255, 255)" stroke="rgb(0, 0, 0)" pointer-events="all"/><g fill="rgb(0, 0, 0)" font-family="Helvetica" text-anchor="middle" font-size="15px"><text x="39.5" y="756">D</text></g><ellipse cx="100" cy="750" rx="20" ry="20" fill="rgb(255, 255, 255)" stroke="rgb(0, 0, 0)" pointer-events="all"/><g fill="rgb(0, 0, 0)" font-family="Helvetica" text-anchor="middle" font-size="15px"><text x="99.5" y="756">E</text></g><ellipse cx="310" cy="750" rx="20" ry="20" fill="rgb(255, 255, 255)" stroke="rgb(0, 0, 0)" pointer-events="all"/><g fill="rgb(0, 0, 0)" font-family="Helvetica" text-anchor="middle" font-size="15px"><text x="309.5" y="756">L</text></g><path d="M 95 620 L 74.08 645.11" fill="none" stroke="rgb(0, 0, 0)" stroke-miterlimit="10" pointer-events="stroke"/><path d="M 70.72 649.14 L 72.51 641.52 L 74.08 645.11 L 77.89 646 Z" fill="rgb(0, 0, 0)" stroke="rgb(0, 0, 0)" stroke-miterlimit="10" pointer-events="all"/><rect x="90" y="610" width="10" height="10" fill="rgb(255, 255, 255)" stroke="rgb(0, 0, 0)" pointer-events="all"/><path d="M 102.5 620 L 125.7 645.31" fill="none" stroke="rgb(0, 0, 0)" stroke-miterlimit="10" pointer-events="stroke"/><path d="M 129.24 649.18 L 121.93 646.38 L 125.7 645.31 L 127.09 641.65 Z" fill="rgb(0, 0, 0)" stroke="rgb(0, 0, 0)" stroke-miterlimit="10" pointer-events="all"/><rect x="100" y="610" width="10" height="10" fill="rgb(255, 255, 255)" stroke="rgb(0, 0, 0)" pointer-events="all"/><path d="M 190 620 L 190 643.63" fill="none" stroke="rgb(0, 0, 0)" stroke-miterlimit="10" pointer-events="stroke"/><path d="M 190 648.88 L 186.5 641.88 L 190 643.63 L 193.5 641.88 Z" fill="rgb(0, 0, 0)" stroke="rgb(0, 0, 0)" stroke-miterlimit="10" pointer-events="all"/><rect x="185" y="610" width="10" height="10" fill="rgb(255, 255, 255)" stroke="rgb(0, 0, 0)" pointer-events="all"/><path d="M 315 620 L 255.78 647.33" fill="none" stroke="rgb(0, 0, 0)" stroke-miterlimit="10" pointer-events="stroke"/><path d="M 251.02 649.53 L 255.9 643.42 L 255.78 647.33 L 258.84 649.78 Z" fill="rgb(0, 0, 0)" stroke="rgb(0, 0, 0)" stroke-miterlimit="10" pointer-events="all"/><rect x="310" y="610" width="10" height="10" fill="rgb(255, 255, 255)" stroke="rgb(0, 0, 0)" pointer-events="all"/><path d="M 325 620 L 312.85 644.3" fill="none" stroke="rgb(0, 0, 0)" stroke-miterlimit="10" pointer-events="stroke"/><path d="M 310.5 649 L 310.5 641.17 L 312.85 644.3 L 316.76 644.3 Z" fill="rgb(0, 0, 0)" stroke="rgb(0, 0, 0)" stroke-miterlimit="10" pointer-events="all"/><rect x="320" y="610" width="10" height="10" fill="rgb(255, 255, 255)" stroke="rgb(0, 0, 0)" pointer-events="all"/><path d="M 335 620 L 365.17 645.86" fill="none" stroke="rgb(0, 0, 0)" stroke-miterlimit="10" pointer-events="stroke"/><path d="M 369.15 649.27 L 361.56 647.37 L 365.17 645.86 L 366.11 642.06 Z" fill="rgb(0, 0, 0)" stroke="rgb(0, 0, 0)" stroke-miterlimit="10" pointer-events="all"/><rect x="330" y="610" width="10" height="10" fill="rgb(255, 255, 255)" stroke="rgb(0, 0, 0)" pointer-events="all"/><path d="M 345 620 L 424 647.88" fill="none" stroke="rgb(0, 0, 0)" stroke-miterlimit="10" pointer-events="stroke"/><path d="M 428.95 649.63 L 421.18 650.6 L 424 647.88 L 423.51 644 Z" fill="rgb(0, 0, 0)" stroke="rgb(0, 0, 0)" stroke-miterlimit="10" pointer-events="all"/><rect x="340" y="610" width="10" height="10" fill="rgb(255, 255, 255)" stroke="rgb(0, 0, 0)" pointer-events="all"/><rect x="60" y="690" width="10" height="10" fill="rgb(255, 255, 255)" stroke="rgb(0, 0, 0)" pointer-events="all"/><path d="M 75 700 L 95.92 725.11" fill="none" stroke="rgb(0, 0, 0)" stroke-miterlimit="10" pointer-events="stroke"/><path d="M 99.28 729.14 L 92.11 726 L 95.92 725.11 L 97.49 721.52 Z" fill="rgb(0, 0, 0)" stroke="rgb(0, 0, 0)" stroke-miterlimit="10" pointer-events="all"/><rect x="70" y="690" width="10" height="10" fill="rgb(255, 255, 255)" stroke="rgb(0, 0, 0)" pointer-events="all"/><path d="M 310 700 L 310 723.63" fill="none" stroke="rgb(0, 0, 0)" stroke-miterlimit="10" pointer-events="stroke"/><path d="M 310 728.88 L 306.5 721.88 L 310 723.63 L 313.5 721.88 Z" fill="rgb(0, 0, 0)" stroke="rgb(0, 0, 0)" stroke-miterlimit="10" pointer-events="all"/><rect x="305" y="690" width="10" height="10" fill="rgb(255, 255, 255)" stroke="rgb(0, 0, 0)" pointer-events="all"/><rect x="410" y="130" width="320" height="39" fill="rgb(255, 255, 255)" stroke="none" pointer-events="all"/><g fill="rgb(0, 0, 0)" font-family="Helvetica" font-size="15px"><text x="411.5" y="155.5">výstup: A, I, N, M, K, L, H, B, F, C, E, D</text></g><rect x="410" y="530" width="320" height="60" fill="rgb(255, 255, 255)" stroke="none" pointer-events="all"/><g fill="rgb(0, 0, 0)" font-family="Helvetica" font-size="15px"><text x="411.5" y="566">výstup: A, B, I, C, F, H, K, M, N, D, E, L</text></g><rect x="10" y="810" width="440" height="40" fill="rgb(255, 255, 255)" stroke="none" pointer-events="all"/><g fill="rgb(0, 0, 0)" font-family="Helvetica" font-weight="bold" font-size="15px"><text x="11.5" y="836">9. úloha (graf - hladanie do šírky)</text></g><rect x="10" y="1090" width="80" height="40" rx="20" ry="20" fill="#f5f5f5" stroke="none" pointer-events="all"/><g fill="#333333" font-family="Helvetica" text-anchor="middle" font-size="15px"><text x="49.5" y="1116">Wisdon</text></g><path d="M 40 1130 L 124.7 1186.47" fill="none" stroke="#000000" stroke-miterlimit="10" pointer-events="stroke"/><path d="M 129.07 1189.38 L 121.3 1188.41 L 124.7 1186.47 L 125.19 1182.58 Z" fill="#000000" stroke="#000000" stroke-miterlimit="10" pointer-events="all"/><rect x="30" y="1120" width="20" height="10" fill="#f5f5f5" stroke="#666666" pointer-events="all"/><path d="M 65.24 1120 L 165.39 1024.4" fill="none" stroke="#000000" stroke-miterlimit="10" pointer-events="stroke"/><path d="M 169.19 1020.77 L 166.54 1028.14 L 165.39 1024.4 L 161.71 1023.07 Z" fill="#000000" stroke="#000000" stroke-miterlimit="10" pointer-events="all"/><rect x="50" y="1120" width="20" height="10" fill="#f5f5f5" stroke="#666666" pointer-events="all"/><rect x="330" y="1090" width="80" height="40" rx="20" ry="20" fill="#f5f5f5" stroke="none" pointer-events="all"/><g fill="#333333" font-family="Helvetica" text-anchor="middle" font-size="15px"><text x="369.5" y="1116">Melon</text></g><path d="M 390 1125 L 483.7 1110.94" fill="none" stroke="#000000" stroke-miterlimit="10" pointer-events="stroke"/><path d="M 488.89 1110.17 L 482.49 1114.67 L 483.7 1110.94 L 481.45 1107.74 Z" fill="#000000" stroke="#000000" stroke-miterlimit="10" pointer-events="all"/><rect x="350" y="1120" width="20" height="10" fill="#f5f5f5" stroke="#666666" pointer-events="all"/><rect x="170" y="990" width="80" height="40" rx="20" ry="20" fill="#f5f5f5" stroke="none" pointer-events="all"/><g fill="#333333" font-family="Helvetica" text-anchor="middle" font-size="15px"><text x="209.5" y="1016">Lion</text></g><path d="M 210 1020 L 228.62 936.22" fill="none" stroke="#000000" stroke-miterlimit="10" pointer-events="stroke"/><path d="M 229.76 931.09 L 231.66 938.68 L 228.62 936.22 L 224.82 937.17 Z" fill="#000000" stroke="#000000" stroke-miterlimit="10" pointer-events="all"/><rect x="200" y="1020" width="20" height="10" fill="#f5f5f5" stroke="#666666" pointer-events="all"/><rect x="170" y="890" width="80" height="40" rx="20" ry="20" fill="#f5f5f5" stroke="none" pointer-events="all"/><g fill="#333333" font-family="Helvetica" text-anchor="middle" font-size="15px"><text x="209.5" y="916">Nylon</text></g><path d="M 200 925 L 54.28 1085.29" fill="none" stroke="#000000" stroke-miterlimit="10" pointer-events="stroke"/><path d="M 50.75 1089.17 L 52.87 1081.64 L 54.28 1085.29 L 58.05 1086.35 Z" fill="#000000" stroke="#000000" stroke-miterlimit="10" pointer-events="all"/><rect x="200" y="920" width="20" height="10" fill="#f5f5f5" stroke="#666666" pointer-events="all"/><rect x="90" y="1190" width="80" height="40" rx="20" ry="20" fill="#f5f5f5" stroke="none" pointer-events="all"/><g fill="#333333" font-family="Helvetica" text-anchor="middle" font-size="15px"><text x="129.5" y="1216">Tilon</text></g><path d="M 140 1225 L 243.69 1210.86" fill="none" stroke="#666666" stroke-miterlimit="10" pointer-events="stroke"/><path d="M 248.89 1210.15 L 242.43 1214.56 L 243.69 1210.86 L 241.48 1207.63 Z" fill="#666666" stroke="#666666" stroke-miterlimit="10" pointer-events="all"/><rect x="120" y="1220" width="20" height="10" fill="#f5f5f5" stroke="#666666" pointer-events="all"/><rect x="250" y="1190" width="80" height="40" rx="20" ry="20" fill="#f5f5f5" stroke="none" pointer-events="all"/><g fill="#333333" font-family="Helvetica" text-anchor="middle" font-size="15px"><text x="289.5" y="1216">Turbilon</text></g><path d="M 290 1220 L 334.14 1130.43" fill="none" stroke="#000000" stroke-miterlimit="10" pointer-events="stroke"/><path d="M 336.47 1125.72 L 336.51 1133.55 L 334.14 1130.43 L 330.23 1130.45 Z" fill="#000000" stroke="#000000" stroke-miterlimit="10" pointer-events="all"/><rect x="280" y="1220" width="20" height="10" fill="#f5f5f5" stroke="#666666" pointer-events="all"/><rect x="490" y="1090" width="80" height="40" rx="20" ry="20" fill="#f5f5f5" stroke="none" pointer-events="all"/><g fill="#333333" font-family="Helvetica" text-anchor="middle" font-size="15px"><text x="529.5" y="1116">Billon</text></g><path d="M 360 1120 L 242.69 1031.63" fill="none" stroke="#000000" stroke-miterlimit="10" pointer-events="stroke"/><path d="M 238.49 1028.47 L 246.19 1029.89 L 242.69 1031.63 L 241.98 1035.48 Z" fill="#000000" stroke="#000000" stroke-miterlimit="10" pointer-events="all"/><rect x="370" y="1120" width="20" height="10" fill="#f5f5f5" stroke="#666666" pointer-events="all"/><rect x="330" y="890" width="80" height="40" rx="20" ry="20" fill="#f5f5f5" stroke="none" pointer-events="all"/><g fill="#333333" font-family="Helvetica" text-anchor="middle" font-size="15px"><text x="369.5" y="916">Gulidon</text></g><path d="M 350 925 L 256.3 910.94" fill="none" stroke="#666666" stroke-miterlimit="10" pointer-events="stroke"/><path d="M 251.11 910.17 L 258.55 907.74 L 256.3 910.94 L 257.51 914.67 Z" fill="#666666" stroke="#666666" stroke-miterlimit="10" pointer-events="all"/><rect x="350" y="920" width="20" height="10" fill="#f5f5f5" stroke="#666666" pointer-events="all"/><path d="M 380 930 L 371.54 963.82" fill="none" stroke="#000000" stroke-miterlimit="10" pointer-events="stroke"/><path d="M 370.27 968.92 L 368.57 961.28 L 371.54 963.82 L 375.36 962.97 Z" fill="#000000" stroke="#000000" stroke-miterlimit="10" pointer-events="all"/><rect x="370" y="920" width="20" height="10" fill="#f5f5f5" stroke="#666666" pointer-events="all"/><rect x="330" y="970" width="80" height="40" rx="20" ry="20" fill="#f5f5f5" stroke="none" pointer-events="all"/><g fill="#333333" font-family="Helvetica" text-anchor="middle" font-size="15px"><text x="369.5" y="996">Gaučon</text></g><rect x="490" y="890" width="80" height="40" rx="20" ry="20" fill="#f5f5f5" stroke="none" pointer-events="all"/><g fill="#333333" font-family="Helvetica" text-anchor="middle" font-size="15px"><text x="529.5" y="916">Etalon</text></g><path d="M 530 930 L 530 1003.63" fill="none" stroke="#000000" stroke-miterlimit="10" pointer-events="stroke"/><path d="M 530 1008.88 L 526.5 1001.88 L 530 1003.63 L 533.5 1001.88 Z" fill="#000000" stroke="#000000" stroke-miterlimit="10" pointer-events="all"/><rect x="520" y="920" width="20" height="10" fill="#f5f5f5" stroke="#666666" pointer-events="all"/><rect x="490" y="1010" width="80" height="40" rx="20" ry="20" fill="#f5f5f5" stroke="none" pointer-events="all"/><g fill="#333333" font-family="Helvetica" text-anchor="middle" font-size="15px"><text x="529.5" y="1036">Tigron</text></g><rect x="640" y="950" width="20" height="20" fill="#ffffff" stroke="none" pointer-events="all"/><g fill="#CC0000" font-family="Helvetica" text-anchor="middle" font-size="12px"><text x="649.5" y="964.5">1.</text></g><rect x="620" y="970" width="80" height="40" rx="20" ry="20" fill="#f5f5f5" stroke="none" pointer-events="all"/><g fill="#00CC00" font-family="Helvetica" text-anchor="middle" font-size="15px"><text x="659.5" y="996">London</text></g><rect x="640" y="1000" width="20" height="10" fill="#f5f5f5" stroke="#0000cc" pointer-events="all"/><rect x="660" y="1000" width="20" height="10" fill="#f5f5f5" stroke="#0000cc" pointer-events="all"/><path d="M 710 940 L 665.91 957.63" fill="none" stroke="#000000" stroke-miterlimit="10" pointer-events="stroke"/><path d="M 661.04 959.58 L 666.24 953.74 L 665.91 957.63 L 668.84 960.23 Z" fill="#000000" stroke="#000000" stroke-miterlimit="10" pointer-events="all"/><rect x="710" y="930" width="120" height="20" fill="#ffffff" stroke="none" pointer-events="all"/><g fill="#CC0000" font-family="Helvetica" font-size="12px"><text x="711.5" y="944.5">poriadie vo výstupe</text></g><path d="M 710 980 L 695.7 987.15" fill="none" stroke="#000000" stroke-miterlimit="10" pointer-events="stroke"/><path d="M 691 989.5 L 695.7 983.24 L 695.7 987.15 L 698.83 989.5 Z" fill="#000000" stroke="#000000" stroke-miterlimit="10" pointer-events="all"/><rect x="710" y="970" width="120" height="20" fill="#ffffff" stroke="none" pointer-events="all"/><g fill="#00CC00" font-family="Helvetica" font-size="12px"><text x="711.5" y="984.5">názov obce</text></g><path d="M 710 1030 L 684.89 1009.08" fill="none" stroke="#000000" stroke-miterlimit="10" pointer-events="stroke"/><path d="M 680.86 1005.72 L 688.48 1007.51 L 684.89 1009.08 L 684 1012.89 Z" fill="#000000" stroke="#000000" stroke-miterlimit="10" pointer-events="all"/><rect x="710" y="1000" width="120" height="60" fill="#ffffff" stroke="none" pointer-events="all"/><g fill="#0000CC" font-family="Helvetica" font-size="12px"><text x="711.5" y="1013.5">zoznam výstupných hrán</text><text x="711.5" y="1027.5">(poradie vrcholov</text><text x="711.5" y="1041.5">vo výstupe záleží </text><text x="711.5" y="1055.5">na poradí hran v zozname)</text></g><rect x="620" y="900" width="120" height="20" fill="#ffffff" stroke="none" pointer-events="all"/><g fill="rgb(0, 0, 0)" font-family="Helvetica" font-size="12px"><text x="621.5" y="914.5">Popis značiek</text></g><rect x="410" y="1170" width="470" height="80" fill="rgb(255, 255, 255)" stroke="none" pointer-events="all"/><g fill="rgb(0, 0, 0)" font-family="Helvetica" font-size="15px"><text x="411.5" y="1198">startCity: London</text><text x="411.5" y="1234">výstup: (London, Wisdon, Melon, Tilon, Lion, Billon, Turbilon, Nylon)</text></g><rect x="50" y="1340" width="80" height="40" rx="20" ry="20" fill="#f5f5f5" stroke="none" pointer-events="all"/><g fill="#333333" font-family="Helvetica" text-anchor="middle" font-size="15px"><text x="89.5" y="1366">London</text></g><path d="M 70 1380 L 87.15 1414.3" fill="none" stroke="#000000" stroke-miterlimit="10" pointer-events="stroke"/><path d="M 89.5 1419 L 83.24 1414.3 L 87.15 1414.3 L 89.5 1411.17 Z" fill="#000000" stroke="#000000" stroke-miterlimit="10" pointer-events="all"/><g fill="rgb(0, 0, 0)" font-family="Helvetica" text-anchor="middle" font-size="12px"><rect fill="rgb(255, 255, 255)" stroke="none" x="73" y="1394" width="15" height="15" stroke-width="0"/><text x="79.53" y="1404.56">10</text></g><rect x="60" y="1370" width="20" height="10" fill="#f5f5f5" stroke="#666666" pointer-events="all"/><rect x="80" y="1370" width="20" height="10" fill="#f5f5f5" stroke="#666666" pointer-events="all"/><rect x="50" y="1420" width="80" height="40" rx="20" ry="20" fill="#f5f5f5" stroke="none" pointer-events="all"/><g fill="#333333" font-family="Helvetica" text-anchor="middle" font-size="15px"><text x="89.5" y="1446">Haron</text></g><rect x="80" y="1450" width="20" height="10" fill="#f5f5f5" stroke="#666666" pointer-events="all"/><rect x="210" y="1420" width="80" height="40" rx="20" ry="20" fill="#f5f5f5" stroke="none" pointer-events="all"/><g fill="#333333" font-family="Helvetica" text-anchor="middle" font-size="15px"><text x="249.5" y="1446">Pecelon</text></g><path d="M 240 1460 L 248.46 1493.82" fill="none" stroke="#000000" stroke-miterlimit="10" pointer-events="stroke"/><path d="M 249.73 1498.92 L 244.64 1492.97 L 248.46 1493.82 L 251.43 1491.28 Z" fill="#000000" stroke="#000000" stroke-miterlimit="10" pointer-events="all"/><g fill="rgb(0, 0, 0)" font-family="Helvetica" text-anchor="middle" font-size="12px"><rect fill="rgb(255, 255, 255)" stroke="none" x="238" y="1473" width="15" height="15" stroke-width="0"/><text x="244.5" y="1484.49">10</text></g><rect x="230" y="1450" width="20" height="10" fill="#f5f5f5" stroke="#666666" pointer-events="all"/><path d="M 270 1455 L 403.67 1440.68" fill="none" stroke="#000000" stroke-miterlimit="10" pointer-events="stroke"/><path d="M 408.89 1440.12 L 402.3 1444.34 L 403.67 1440.68 L 401.56 1437.38 Z" fill="#000000" stroke="#000000" stroke-miterlimit="10" pointer-events="all"/><g fill="#000000" font-family="Helvetica" text-anchor="middle" font-size="12px"><rect fill="rgb(255, 255, 255)" stroke="none" x="320" y="1442" width="15" height="15" stroke-width="0"/><text x="326.94" y="1452.67">50</text></g><rect x="250" y="1450" width="20" height="10" fill="#f5f5f5" stroke="#666666" pointer-events="all"/><rect x="410" y="1420" width="80" height="40" rx="20" ry="20" fill="#f5f5f5" stroke="none" pointer-events="all"/><g fill="#333333" font-family="Helvetica" text-anchor="middle" font-size="15px"><text x="449.5" y="1446">Ničudon</text></g><rect x="210" y="1500" width="80" height="40" rx="20" ry="20" fill="#f5f5f5" stroke="none" pointer-events="all"/><g fill="#333333" font-family="Helvetica" text-anchor="middle" font-size="15px"><text x="249.5" y="1526">Ballon</text></g><path d="M 230 1532.5 L 115.45 1463.29" fill="none" stroke="#000000" stroke-miterlimit="10" pointer-events="stroke"/><path d="M 110.96 1460.58 L 118.76 1461.2 L 115.45 1463.29 L 115.14 1467.19 Z" fill="#000000" stroke="#000000" stroke-miterlimit="10" pointer-events="all"/><g fill="#000000" font-family="Helvetica" text-anchor="middle" font-size="12px"><rect fill="rgb(255, 255, 255)" stroke="none" x="168" y="1492" width="15" height="15" stroke-width="0"/><text x="174.3" y="1502.6">15</text></g><rect x="230" y="1530" width="20" height="10" fill="#f5f5f5" stroke="#666666" pointer-events="all"/><path d="M 270 1535 L 424.23 1462.7" fill="none" stroke="#000000" stroke-miterlimit="10" pointer-events="stroke"/><path d="M 428.99 1460.47 L 424.14 1466.61 L 424.23 1462.7 L 421.16 1460.28 Z" fill="#000000" stroke="#000000" stroke-miterlimit="10" pointer-events="all"/><g fill="#000000" font-family="Helvetica" text-anchor="middle" font-size="12px"><rect fill="rgb(255, 255, 255)" stroke="none" x="343" y="1491" width="15" height="15" stroke-width="0"/><text x="349.62" y="1501.94">50</text></g><rect x="250" y="1530" width="20" height="10" fill="#f5f5f5" stroke="#666666" pointer-events="all"/><path d="M 110 1380 L 446.15 1419.26" fill="none" stroke="#000000" stroke-miterlimit="10" pointer-events="stroke"/><path d="M 451.37 1419.87 L 444.01 1422.53 L 446.15 1419.26 L 444.82 1415.58 Z" fill="#000000" stroke="#000000" stroke-miterlimit="10" pointer-events="all"/><g fill="#000000" font-family="Helvetica" text-anchor="middle" font-size="12px"><rect fill="rgb(255, 255, 255)" stroke="none" x="266" y="1392" width="22" height="15" stroke-width="0"/><text x="276.06" y="1403.21">100</text></g><rect x="100" y="1370" width="20" height="10" fill="#f5f5f5" stroke="#666666" pointer-events="all"/><path d="M 90 1380 L 246.87 1419.56" fill="none" stroke="#000000" stroke-miterlimit="10" pointer-events="stroke"/><path d="M 251.96 1420.85 L 244.31 1422.53 L 246.87 1419.56 L 246.02 1415.74 Z" fill="#000000" stroke="#000000" stroke-miterlimit="10" pointer-events="all"/><g fill="#000000" font-family="Helvetica" text-anchor="middle" font-size="12px"><rect fill="rgb(255, 255, 255)" stroke="none" x="177" y="1397" width="15" height="15" stroke-width="0"/><text x="183.24" y="1408.37">40</text></g><path d="M 100 1455 L 203.69 1440.86" fill="none" stroke="#000000" stroke-miterlimit="10" pointer-events="stroke"/><path d="M 208.89 1440.15 L 202.43 1444.56 L 203.69 1440.86 L 201.48 1437.63 Z" fill="#000000" stroke="#000000" stroke-miterlimit="10" pointer-events="all"/><g fill="#000000" font-family="Helvetica" text-anchor="middle" font-size="12px"><rect fill="rgb(255, 255, 255)" stroke="none" x="164" y="1439" width="15" height="15" stroke-width="0"/><text x="170.66" y="1450.14">20</text></g><rect x="530" y="1340" width="80" height="40" rx="20" ry="20" fill="#f5f5f5" stroke="none" pointer-events="all"/><g fill="#333333" font-family="Helvetica" text-anchor="middle" font-size="15px"><text x="569.5" y="1366">Etalon</text></g><path d="M 570 1380 L 570 1453.63" fill="none" stroke="#000000" stroke-miterlimit="10" pointer-events="stroke"/><path d="M 570 1458.88 L 566.5 1451.88 L 570 1453.63 L 573.5 1451.88 Z" fill="#000000" stroke="#000000" stroke-miterlimit="10" pointer-events="all"/><g fill="rgb(0, 0, 0)" font-family="Helvetica" text-anchor="middle" font-size="12px"><rect fill="rgb(255, 255, 255)" stroke="none" x="563" y="1414" width="15" height="15" stroke-width="0"/><text x="569.5" y="1424.5">10</text></g><rect x="560" y="1370" width="20" height="10" fill="#f5f5f5" stroke="#666666" pointer-events="all"/><rect x="530" y="1460" width="80" height="40" rx="20" ry="20" fill="#f5f5f5" stroke="none" pointer-events="all"/><g fill="#333333" font-family="Helvetica" text-anchor="middle" font-size="15px"><text x="569.5" y="1486">Tigron</text></g><rect x="410" y="1530" width="470" height="80" fill="rgb(255, 255, 255)" stroke="none" pointer-events="all"/><g fill="rgb(0, 0, 0)" font-family="Helvetica" font-size="15px"><text x="411.5" y="1558">startCity: London</text><text x="411.5" y="1594">výstup: {London: 0, Haron: 10, Pecelon: 30, Ballon: 40, Ničudon: 80}</text></g><rect x="10" y="10" width="440" height="40" fill="rgb(255, 255, 255)" stroke="none" pointer-events="all"/><g fill="rgb(0, 0, 0)" font-family="Helvetica" font-style="italic" font-size="25px"><text x="11.5" y="41">Príklady k úlohám v 10. zadaní</text></g><path d="M 10 50 L 890 50" fill="none" stroke="#000000" stroke-miterlimit="10" pointer-events="stroke"/><rect x="650" y="1080" width="200" height="25" fill="#ffffff" stroke="none" pointer-events="all"/><g fill="rgb(0, 0, 0)" font-family="Helvetica" font-size="12px"><text x="651.5" y="1090">Dĺžky hrán nie sú znázornené,</text><text x="651.5" y="1104">pretože v 9. úlohe na nich nezáleží</text></g></g></svg>